<?xml version="1.0"?><svg fill="#000000" xmlns="http://www.w3.org/2000/svg"  viewBox="0 0 50 50" width="150px" height="150px">    <path d="M 9 4 C 6.24 4 4 6.24 4 9 L 4 41 C 4 43.76 6.24 46 9 46 L 41 46 C 43.76 46 46 43.76 46 41 L 46 9 C 46 6.24 43.76 4 41 4 L 9 4 z M 12 18 L 18.730469 18 C 19.460469 18 23.410156 17.950312 23.410156 21.570312 C 23.410156 23.490313 22.099766 24.139688 21.509766 24.429688 C 22.389766 24.709688 24 25.52 24 28 C 24 31.83 19.609531 32 19.019531 32 L 12 32 L 12 18 z M 29 18 L 36 18 L 36 20 L 29 20 L 29 18 z M 15 20.429688 L 15 23.710938 L 18.220703 23.710938 C 18.660703 23.710938 20.119141 23.47 20.119141 22 C 20.119141 20.53 18.219687 20.429688 17.929688 20.429688 L 15 20.429688 z M 32.730469 21 C 36.630469 21 37.689609 24.039766 37.849609 24.759766 C 37.999609 25.489766 38 26.13 38 27 L 30.099609 27 C 30.099609 27.87 30.560625 29.830078 32.890625 29.830078 C 33.510625 29.830078 33.969453 29.680625 34.439453 29.390625 C 34.899453 29.100625 35.060938 28.819297 35.210938 28.529297 L 37.839844 28.529297 C 37.379844 29.679297 36.760078 30.550859 35.830078 31.130859 C 34.900078 31.710859 33.820078 32 32.580078 32 C 31.800078 32 31.03 31.850547 30.25 31.560547 C 29.63 31.270547 29.010781 30.840156 28.550781 30.410156 C 28.090781 29.970156 27.780703 29.389922 27.470703 28.669922 C 27.160703 28.089922 27 27.22 27 26.5 C 27 25.78 27.290469 21 32.730469 21 z M 32.730469 23.029297 C 30.470469 23.029297 30.099609 25.199844 30.099609 25.339844 L 35.060547 25.339844 C 34.900547 24.619844 34.250469 23.029297 32.730469 23.029297 z M 15 25.710938 L 15 29.570312 L 18.351562 29.570312 C 18.640563 29.570312 20.679688 29.480937 20.679688 27.710938 C 20.679687 25.950937 19.077562 25.710938 18.351562 25.710938 L 15 25.710938 z"/></svg>